<mxfile host="app.diagrams.net" modified="2021-06-08T02:31:51.342Z" agent="5.0 (Windows NT 6.1; Win64; x64) AppleWebKit/537.36 (KHTML, like Gecko) Chrome/87.0.4280.88 Safari/537.36" etag="1sD8bvjARFSMOa2kLbEL" version="14.7.6" type="github">
  <diagram id="LNgHR-o0HeUwP64xvGlQ" name="Page-1">
    <mxGraphModel dx="1240" dy="1812" grid="1" gridSize="10" guides="1" tooltips="1" connect="1" arrows="1" fold="1" page="1" pageScale="1" pageWidth="827" pageHeight="1169" math="0" shadow="0">
      <root>
        <mxCell id="0" />
        <mxCell id="1" parent="0" />
        <mxCell id="nxFCdrsBG2ZQId8MpxBd-54" style="edgeStyle=orthogonalEdgeStyle;rounded=0;orthogonalLoop=1;jettySize=auto;html=1;exitX=0.5;exitY=1;exitDx=0;exitDy=0;entryX=0.5;entryY=0;entryDx=0;entryDy=0;" edge="1" parent="1" source="nxFCdrsBG2ZQId8MpxBd-3" target="nxFCdrsBG2ZQId8MpxBd-41">
          <mxGeometry relative="1" as="geometry" />
        </mxCell>
        <mxCell id="nxFCdrsBG2ZQId8MpxBd-3" value="&lt;span style=&quot;font-size: 18px&quot;&gt;污水水样&lt;/span&gt;" style="rounded=1;whiteSpace=wrap;html=1;fillColor=#dae8fc;strokeColor=#6c8ebf;" vertex="1" parent="1">
          <mxGeometry x="483" y="-350" width="120" height="60" as="geometry" />
        </mxCell>
        <mxCell id="nxFCdrsBG2ZQId8MpxBd-58" style="edgeStyle=orthogonalEdgeStyle;rounded=0;orthogonalLoop=1;jettySize=auto;html=1;exitX=0.5;exitY=1;exitDx=0;exitDy=0;" edge="1" parent="1" source="nxFCdrsBG2ZQId8MpxBd-5" target="nxFCdrsBG2ZQId8MpxBd-24">
          <mxGeometry relative="1" as="geometry" />
        </mxCell>
        <mxCell id="nxFCdrsBG2ZQId8MpxBd-5" value="&lt;font style=&quot;font-size: 18px&quot;&gt;流量平衡&lt;br&gt;分析&lt;/font&gt;" style="shape=process;whiteSpace=wrap;html=1;backgroundOutline=1;fillColor=#fff2cc;strokeColor=#d6b656;" vertex="1" parent="1">
          <mxGeometry x="350" y="-44" width="120" height="60" as="geometry" />
        </mxCell>
        <mxCell id="nxFCdrsBG2ZQId8MpxBd-69" style="edgeStyle=orthogonalEdgeStyle;rounded=0;orthogonalLoop=1;jettySize=auto;html=1;exitX=1;exitY=0.5;exitDx=0;exitDy=0;entryX=0;entryY=0.5;entryDx=0;entryDy=0;" edge="1" parent="1" source="nxFCdrsBG2ZQId8MpxBd-10" target="nxFCdrsBG2ZQId8MpxBd-12">
          <mxGeometry relative="1" as="geometry" />
        </mxCell>
        <mxCell id="nxFCdrsBG2ZQId8MpxBd-10" value="&lt;span style=&quot;font-size: 18px&quot;&gt;精准排查&lt;/span&gt;" style="shape=process;whiteSpace=wrap;html=1;backgroundOutline=1;fillColor=#fff2cc;strokeColor=#d6b656;" vertex="1" parent="1">
          <mxGeometry x="530" y="225" width="120" height="60" as="geometry" />
        </mxCell>
        <mxCell id="nxFCdrsBG2ZQId8MpxBd-12" value="&lt;span style=&quot;font-size: 18px&quot;&gt;溯源结果&lt;/span&gt;" style="rounded=1;whiteSpace=wrap;html=1;fillColor=#dae8fc;strokeColor=#6c8ebf;" vertex="1" parent="1">
          <mxGeometry x="707" y="225" width="120" height="60" as="geometry" />
        </mxCell>
        <mxCell id="nxFCdrsBG2ZQId8MpxBd-68" style="edgeStyle=orthogonalEdgeStyle;rounded=0;orthogonalLoop=1;jettySize=auto;html=1;exitX=1;exitY=0.5;exitDx=0;exitDy=0;" edge="1" parent="1" source="nxFCdrsBG2ZQId8MpxBd-20" target="nxFCdrsBG2ZQId8MpxBd-10">
          <mxGeometry relative="1" as="geometry" />
        </mxCell>
        <mxCell id="nxFCdrsBG2ZQId8MpxBd-20" value="" style="rounded=0;whiteSpace=wrap;html=1;fillColor=#fff2cc;strokeColor=#d6b656;" vertex="1" parent="1">
          <mxGeometry x="330" y="180" width="160" height="150" as="geometry" />
        </mxCell>
        <mxCell id="nxFCdrsBG2ZQId8MpxBd-21" value="&lt;span style=&quot;font-size: 18px&quot;&gt;管道机器人&lt;/span&gt;" style="rounded=1;whiteSpace=wrap;html=1;fillColor=#dae8fc;strokeColor=#6c8ebf;" vertex="1" parent="1">
          <mxGeometry x="350" y="190" width="120" height="60" as="geometry" />
        </mxCell>
        <mxCell id="nxFCdrsBG2ZQId8MpxBd-22" value="&lt;span style=&quot;font-size: 18px&quot;&gt;声呐探头&lt;/span&gt;" style="rounded=1;whiteSpace=wrap;html=1;fillColor=#dae8fc;strokeColor=#6c8ebf;" vertex="1" parent="1">
          <mxGeometry x="350" y="260" width="120" height="60" as="geometry" />
        </mxCell>
        <mxCell id="nxFCdrsBG2ZQId8MpxBd-67" style="edgeStyle=orthogonalEdgeStyle;rounded=0;orthogonalLoop=1;jettySize=auto;html=1;exitX=0.5;exitY=1;exitDx=0;exitDy=0;entryX=0.5;entryY=0;entryDx=0;entryDy=0;" edge="1" parent="1" source="nxFCdrsBG2ZQId8MpxBd-24" target="nxFCdrsBG2ZQId8MpxBd-20">
          <mxGeometry relative="1" as="geometry" />
        </mxCell>
        <mxCell id="nxFCdrsBG2ZQId8MpxBd-24" value="&lt;font style=&quot;font-size: 18px&quot;&gt;检查井确认&lt;/font&gt;" style="shape=process;whiteSpace=wrap;html=1;backgroundOutline=1;fillColor=#fff2cc;strokeColor=#d6b656;" vertex="1" parent="1">
          <mxGeometry x="350" y="56.5" width="120" height="60" as="geometry" />
        </mxCell>
        <mxCell id="nxFCdrsBG2ZQId8MpxBd-35" value="&lt;font style=&quot;font-size: 18px&quot;&gt;源解析结果&lt;/font&gt;" style="rounded=1;whiteSpace=wrap;html=1;fillColor=#dae8fc;strokeColor=#6c8ebf;" vertex="1" parent="1">
          <mxGeometry x="603" y="110" width="120" height="60" as="geometry" />
        </mxCell>
        <mxCell id="nxFCdrsBG2ZQId8MpxBd-71" style="edgeStyle=orthogonalEdgeStyle;rounded=0;orthogonalLoop=1;jettySize=auto;html=1;exitX=0.5;exitY=1;exitDx=0;exitDy=0;entryX=0.5;entryY=0;entryDx=0;entryDy=0;" edge="1" parent="1" source="nxFCdrsBG2ZQId8MpxBd-37" target="nxFCdrsBG2ZQId8MpxBd-62">
          <mxGeometry relative="1" as="geometry" />
        </mxCell>
        <mxCell id="nxFCdrsBG2ZQId8MpxBd-37" value="&lt;span style=&quot;font-size: 18px&quot;&gt;水质超标&lt;/span&gt;" style="shape=process;whiteSpace=wrap;html=1;backgroundOutline=1;fillColor=#fff2cc;strokeColor=#d6b656;" vertex="1" parent="1">
          <mxGeometry x="603" y="-140" width="120" height="60" as="geometry" />
        </mxCell>
        <mxCell id="nxFCdrsBG2ZQId8MpxBd-57" style="edgeStyle=orthogonalEdgeStyle;rounded=0;orthogonalLoop=1;jettySize=auto;html=1;exitX=0.5;exitY=1;exitDx=0;exitDy=0;entryX=0.5;entryY=0;entryDx=0;entryDy=0;" edge="1" parent="1" source="nxFCdrsBG2ZQId8MpxBd-39" target="nxFCdrsBG2ZQId8MpxBd-5">
          <mxGeometry relative="1" as="geometry" />
        </mxCell>
        <mxCell id="nxFCdrsBG2ZQId8MpxBd-39" value="&lt;font style=&quot;font-size: 18px&quot;&gt;流量异常&lt;/font&gt;" style="shape=process;whiteSpace=wrap;html=1;backgroundOutline=1;fillColor=#fff2cc;strokeColor=#d6b656;" vertex="1" parent="1">
          <mxGeometry x="350" y="-140" width="120" height="60" as="geometry" />
        </mxCell>
        <mxCell id="nxFCdrsBG2ZQId8MpxBd-55" style="edgeStyle=orthogonalEdgeStyle;rounded=0;orthogonalLoop=1;jettySize=auto;html=1;exitX=0.5;exitY=1;exitDx=0;exitDy=0;entryX=0.5;entryY=0;entryDx=0;entryDy=0;" edge="1" parent="1" source="nxFCdrsBG2ZQId8MpxBd-41" target="nxFCdrsBG2ZQId8MpxBd-39">
          <mxGeometry relative="1" as="geometry" />
        </mxCell>
        <mxCell id="nxFCdrsBG2ZQId8MpxBd-56" style="edgeStyle=orthogonalEdgeStyle;rounded=0;orthogonalLoop=1;jettySize=auto;html=1;exitX=0.5;exitY=1;exitDx=0;exitDy=0;" edge="1" parent="1" source="nxFCdrsBG2ZQId8MpxBd-41" target="nxFCdrsBG2ZQId8MpxBd-37">
          <mxGeometry relative="1" as="geometry" />
        </mxCell>
        <mxCell id="nxFCdrsBG2ZQId8MpxBd-41" value="&lt;span style=&quot;font-size: 18px&quot;&gt;监测站&lt;/span&gt;" style="rounded=1;whiteSpace=wrap;html=1;fillColor=#dae8fc;strokeColor=#6c8ebf;" vertex="1" parent="1">
          <mxGeometry x="483" y="-260" width="120" height="60" as="geometry" />
        </mxCell>
        <mxCell id="nxFCdrsBG2ZQId8MpxBd-45" value="" style="rounded=0;whiteSpace=wrap;html=1;dashed=1;fillColor=#fff2cc;strokeColor=#d6b656;" vertex="1" parent="1">
          <mxGeometry x="860" y="-30" width="270" height="260" as="geometry" />
        </mxCell>
        <mxCell id="nxFCdrsBG2ZQId8MpxBd-47" value="&lt;font style=&quot;font-size: 16px&quot;&gt;污染源荧光指纹数据库&lt;/font&gt;" style="shape=cylinder3;whiteSpace=wrap;html=1;boundedLbl=1;backgroundOutline=1;size=15;fillColor=#dae8fc;strokeColor=#6c8ebf;fontSize=16;" vertex="1" parent="1">
          <mxGeometry x="1040" y="39.5" width="70" height="114" as="geometry" />
        </mxCell>
        <mxCell id="nxFCdrsBG2ZQId8MpxBd-48" style="edgeStyle=orthogonalEdgeStyle;rounded=0;orthogonalLoop=1;jettySize=auto;html=1;exitX=0.5;exitY=1;exitDx=0;exitDy=0;" edge="1" parent="1" source="nxFCdrsBG2ZQId8MpxBd-49" target="nxFCdrsBG2ZQId8MpxBd-53">
          <mxGeometry relative="1" as="geometry" />
        </mxCell>
        <mxCell id="nxFCdrsBG2ZQId8MpxBd-49" value="&lt;font style=&quot;font-size: 18px&quot;&gt;三维荧光&lt;br&gt;快速检测&lt;/font&gt;" style="shape=process;whiteSpace=wrap;html=1;backgroundOutline=1;fillColor=#fff2cc;strokeColor=#d6b656;" vertex="1" parent="1">
          <mxGeometry x="880" y="70" width="120" height="60" as="geometry" />
        </mxCell>
        <mxCell id="nxFCdrsBG2ZQId8MpxBd-50" style="edgeStyle=orthogonalEdgeStyle;rounded=0;orthogonalLoop=1;jettySize=auto;html=1;exitX=0.5;exitY=1;exitDx=0;exitDy=0;entryX=0.5;entryY=0;entryDx=0;entryDy=0;" edge="1" parent="1" source="nxFCdrsBG2ZQId8MpxBd-51" target="nxFCdrsBG2ZQId8MpxBd-49">
          <mxGeometry relative="1" as="geometry" />
        </mxCell>
        <mxCell id="nxFCdrsBG2ZQId8MpxBd-51" value="&lt;font style=&quot;font-size: 18px&quot;&gt;预处理&lt;/font&gt;" style="shape=process;whiteSpace=wrap;html=1;backgroundOutline=1;fillColor=#fff2cc;strokeColor=#d6b656;" vertex="1" parent="1">
          <mxGeometry x="880" y="-17.5" width="120" height="60" as="geometry" />
        </mxCell>
        <mxCell id="nxFCdrsBG2ZQId8MpxBd-53" value="&lt;font style=&quot;font-size: 18px&quot;&gt;平行因子&lt;br&gt;分析&lt;/font&gt;" style="shape=process;whiteSpace=wrap;html=1;backgroundOutline=1;fillColor=#fff2cc;strokeColor=#d6b656;" vertex="1" parent="1">
          <mxGeometry x="880" y="160" width="120" height="60" as="geometry" />
        </mxCell>
        <mxCell id="nxFCdrsBG2ZQId8MpxBd-65" style="edgeStyle=orthogonalEdgeStyle;rounded=0;orthogonalLoop=1;jettySize=auto;html=1;exitX=0.5;exitY=1;exitDx=0;exitDy=0;entryX=0.5;entryY=0;entryDx=0;entryDy=0;" edge="1" parent="1" source="nxFCdrsBG2ZQId8MpxBd-62" target="nxFCdrsBG2ZQId8MpxBd-35">
          <mxGeometry relative="1" as="geometry" />
        </mxCell>
        <mxCell id="nxFCdrsBG2ZQId8MpxBd-62" value="" style="rounded=0;whiteSpace=wrap;html=1;fillColor=#fff2cc;strokeColor=#d6b656;" vertex="1" parent="1">
          <mxGeometry x="580.5" y="-44" width="165" height="124" as="geometry" />
        </mxCell>
        <mxCell id="nxFCdrsBG2ZQId8MpxBd-63" value="&lt;font style=&quot;font-size: 18px&quot;&gt;特征&lt;br&gt;污染物分析&lt;/font&gt;" style="shape=process;whiteSpace=wrap;html=1;backgroundOutline=1;fillColor=#fff2cc;strokeColor=#d6b656;" vertex="1" parent="1">
          <mxGeometry x="603" width="120" height="60" as="geometry" />
        </mxCell>
        <mxCell id="nxFCdrsBG2ZQId8MpxBd-64" value="&lt;font style=&quot;font-size: 18px&quot;&gt;源解析&lt;/font&gt;" style="text;html=1;strokeColor=none;fillColor=none;align=center;verticalAlign=middle;whiteSpace=wrap;rounded=0;dashed=1;" vertex="1" parent="1">
          <mxGeometry x="623" y="-40" width="80" height="34" as="geometry" />
        </mxCell>
        <mxCell id="nxFCdrsBG2ZQId8MpxBd-70" value="" style="shape=flexArrow;endArrow=classic;startArrow=classic;html=1;dashed=1;fillColor=#dae8fc;strokeColor=#6c8ebf;" edge="1" parent="1">
          <mxGeometry width="100" height="100" relative="1" as="geometry">
            <mxPoint x="760" y="20" as="sourcePoint" />
            <mxPoint x="850" y="20" as="targetPoint" />
          </mxGeometry>
        </mxCell>
        <mxCell id="nxFCdrsBG2ZQId8MpxBd-79" value="" style="endArrow=classic;startArrow=classic;html=1;entryX=0;entryY=0.526;entryDx=0;entryDy=0;entryPerimeter=0;" edge="1" parent="1" target="nxFCdrsBG2ZQId8MpxBd-47">
          <mxGeometry width="50" height="50" relative="1" as="geometry">
            <mxPoint x="1000" y="100" as="sourcePoint" />
            <mxPoint x="890" y="40" as="targetPoint" />
          </mxGeometry>
        </mxCell>
        <mxCell id="nxFCdrsBG2ZQId8MpxBd-80" value="&lt;font style=&quot;font-size: 18px&quot;&gt;三维荧光检测&lt;/font&gt;" style="text;html=1;strokeColor=none;fillColor=none;align=center;verticalAlign=middle;whiteSpace=wrap;rounded=0;dashed=1;" vertex="1" parent="1">
          <mxGeometry x="1012" y="-8.5" width="110" height="40" as="geometry" />
        </mxCell>
      </root>
    </mxGraphModel>
  </diagram>
</mxfile>
